<svg width="26" height="18" viewBox="0 0 26 18" fill="none" xmlns="http://www.w3.org/2000/svg">
  <path fill-rule="evenodd" clip-rule="evenodd" d="M26 9C26 9.25045 25.9022 9.49063 25.728 9.66773C25.5539 9.84482 25.3177 9.94431 25.0715 9.94431L3.1716 9.94431L9.01566 15.8859C9.10198 15.9737 9.17047 16.078 9.21719 16.1927C9.26391 16.3074 9.28796 16.4303 9.28796 16.5545C9.28796 16.6787 9.26391 16.8016 9.21719 16.9163C9.17047 17.031 9.10198 17.1353 9.01566 17.2231C8.92933 17.3109 8.82684 17.3805 8.71405 17.428C8.60125 17.4755 8.48036 17.5 8.35827 17.5C8.23618 17.5 8.11529 17.4755 8.00249 17.428C7.8897 17.3805 7.78721 17.3109 7.70088 17.2231L0.272785 9.66857C0.186316 9.58086 0.117712 9.47665 0.0709027 9.36192C0.0240937 9.2472 -8.1411e-07 9.12421 -8.26183e-07 9C-8.38255e-07 8.87579 0.0240937 8.7528 0.0709026 8.63808C0.117712 8.52335 0.186315 8.41915 0.272784 8.33143L7.70088 0.776933C7.78721 0.689136 7.8897 0.619489 8.00249 0.571973C8.11529 0.524457 8.23618 0.500001 8.35827 0.500001C8.48036 0.500001 8.60125 0.524457 8.71404 0.571973C8.82684 0.619489 8.92933 0.689136 9.01565 0.776933C9.10198 0.864732 9.17046 0.968963 9.21719 1.08368C9.26391 1.19839 9.28795 1.32134 9.28795 1.4455C9.28795 1.56967 9.26391 1.69262 9.21719 1.80734C9.17046 1.92205 9.10198 2.02628 9.01565 2.11408L3.1716 8.05569L25.0715 8.05569C25.3177 8.05569 25.5539 8.15518 25.728 8.33227C25.9022 8.50936 26 8.74955 26 9Z" fill="white"/>
</svg>
