<svg width="24" height="24" viewBox="0 0 24 24" fill="none" xmlns="http://www.w3.org/2000/svg">
  <path d="M8.2874 12.5868H10.2404V20.7097C10.2404 20.8701 10.369 21 10.5277 21H13.8391C13.9978 21 14.1264 20.8701 14.1264 20.7097V12.6251H16.3716C16.5176 12.6251 16.6404 12.5144 16.6571 12.3679L16.9981 9.37748C17.0074 9.29522 16.9816 9.21281 16.9271 9.15108C16.8726 9.08931 16.7946 9.05394 16.7126 9.05394H14.1266V7.17937C14.1266 6.61431 14.4277 6.32775 15.0218 6.32775C15.1065 6.32775 16.7126 6.32775 16.7126 6.32775C16.8714 6.32775 17 6.19774 17 6.03743V3.29246C17 3.13208 16.8714 3.00214 16.7126 3.00214H14.3824C14.366 3.00134 14.3295 3 14.2757 3C13.8713 3 12.466 3.08019 11.3558 4.11199C10.1257 5.25541 10.2967 6.62443 10.3376 6.86181V9.05387H8.28736C8.12861 9.05387 8 9.18381 8 9.34419V12.2964C8.00003 12.4568 8.12865 12.5868 8.2874 12.5868Z" fill="#623BEA"/>
</svg>
