<svg width="24" height="24" viewBox="0 0 24 24" fill="none" xmlns="http://www.w3.org/2000/svg">
  <path d="M20.5695 5.79575C20.271 5.92815 19.9641 6.03992 19.6505 6.13067C20.0218 5.71071 20.3048 5.21658 20.4776 4.67586C20.5163 4.55467 20.4762 4.42201 20.3766 4.34272C20.2771 4.2634 20.1389 4.25389 20.0294 4.31882C19.3635 4.71387 18.645 4.9978 17.8917 5.1638C17.1328 4.42212 16.1022 4 15.0367 4C12.7877 4 10.9579 5.8302 10.9579 8.07976C10.9579 8.25693 10.9691 8.43314 10.9913 8.60689C8.20047 8.36179 5.60586 6.98969 3.82416 4.80355C3.76067 4.72564 3.66285 4.68362 3.56269 4.69168C3.4625 4.69951 3.37243 4.75604 3.32181 4.84294C2.96044 5.46316 2.7694 6.17255 2.7694 6.89433C2.7694 7.87739 3.12027 8.81008 3.74011 9.53892C3.55163 9.47362 3.36876 9.39204 3.1942 9.29512C3.10049 9.24293 2.98612 9.24374 2.89302 9.29712C2.79987 9.35054 2.74146 9.44872 2.73897 9.55606C2.73853 9.57414 2.73853 9.59222 2.73853 9.61055C2.73853 11.0779 3.52807 12.399 4.7352 13.1191C4.63148 13.1087 4.52787 13.0937 4.42489 13.074C4.31872 13.0537 4.20958 13.0909 4.138 13.1719C4.0663 13.2528 4.04255 13.3656 4.07562 13.4686C4.52241 14.864 5.67277 15.8903 7.06344 16.2032C5.91001 16.9258 4.59099 17.3043 3.20633 17.3043C2.9174 17.3043 2.62683 17.2874 2.34246 17.2537C2.20119 17.2369 2.06611 17.3203 2.01798 17.4548C1.96985 17.5892 2.02087 17.7391 2.14103 17.8161C3.91987 18.957 5.97669 19.56 8.08907 19.56C12.2417 19.56 14.8395 17.6013 16.2875 15.9581C18.0931 13.9091 19.1287 11.1971 19.1287 8.51751C19.1287 8.40556 19.127 8.29253 19.1235 8.17984C19.8359 7.64298 20.4492 6.99325 20.9483 6.24649C21.0241 6.13309 21.0159 5.98316 20.9281 5.87878C20.8404 5.77422 20.6942 5.74044 20.5695 5.79575Z" fill="#623BEA"/>
</svg>
