<svg width="209" height="210" viewBox="0 0 209 210" fill="none" xmlns="http://www.w3.org/2000/svg">
  <g opacity="0.1">
    <circle cx="104.398" cy="12.0032" r="7.85015" transform="rotate(45.6665 104.398 12.0032)" fill="#623BEA"/>
    <circle cx="73.2988" cy="42.3869" r="7.85015" transform="rotate(45.6665 73.2988 42.3869)" fill="#623BEA"/>
    <circle cx="42.2002" cy="72.7706" r="7.85015" transform="rotate(45.6665 42.2002 72.7706)" fill="#623BEA"/>
    <circle cx="11.1011" cy="103.154" r="7.85015" transform="rotate(45.6665 11.1011 103.154)" fill="#623BEA"/>
    <circle cx="122.966" cy="31.0083" r="7.85015" transform="rotate(45.6665 122.966 31.0083)" fill="#623BEA"/>
    <circle cx="91.8668" cy="61.3918" r="7.85015" transform="rotate(45.6665 91.8668 61.3918)" fill="#623BEA"/>
    <circle cx="60.7682" cy="91.7756" r="7.85015" transform="rotate(45.6665 60.7682 91.7756)" fill="#623BEA"/>
    <circle cx="29.6691" cy="122.159" r="7.85015" transform="rotate(45.6665 29.6691 122.159)" fill="#623BEA"/>
    <circle cx="141.534" cy="50.0131" r="7.85015" transform="rotate(45.6665 141.534 50.0131)" fill="#623BEA"/>
    <circle cx="110.435" cy="80.3967" r="7.85015" transform="rotate(45.6665 110.435 80.3967)" fill="#623BEA"/>
    <circle cx="79.3363" cy="110.78" r="7.85015" transform="rotate(45.6665 79.3363 110.78)" fill="#623BEA"/>
    <circle cx="48.2371" cy="141.164" r="7.85015" transform="rotate(45.6665 48.2371 141.164)" fill="#623BEA"/>
    <circle cx="160.101" cy="69.0179" r="7.85015" transform="rotate(45.6665 160.101 69.0179)" fill="#623BEA"/>
    <circle cx="129.002" cy="99.4016" r="7.85015" transform="rotate(45.6665 129.002 99.4016)" fill="#623BEA"/>
    <circle cx="97.9038" cy="129.785" r="7.85015" transform="rotate(45.6665 97.9038 129.785)" fill="#623BEA"/>
    <circle cx="66.8046" cy="160.169" r="7.85015" transform="rotate(45.6665 66.8046 160.169)" fill="#623BEA"/>
    <circle cx="178.669" cy="88.0229" r="7.85015" transform="rotate(45.6665 178.669 88.0229)" fill="#623BEA"/>
    <circle cx="147.57" cy="118.406" r="7.85015" transform="rotate(45.6665 147.57 118.406)" fill="#623BEA"/>
    <circle cx="116.472" cy="148.79" r="7.85015" transform="rotate(45.6665 116.472 148.79)" fill="#623BEA"/>
    <circle cx="85.3726" cy="179.174" r="7.85015" transform="rotate(45.6665 85.3726 179.174)" fill="#623BEA"/>
    <circle cx="197.237" cy="107.028" r="7.85015" transform="rotate(45.6665 197.237 107.028)" fill="#623BEA"/>
    <circle cx="166.138" cy="137.411" r="7.85015" transform="rotate(45.6665 166.138 137.411)" fill="#623BEA"/>
    <circle cx="135.04" cy="167.795" r="7.85015" transform="rotate(45.6665 135.04 167.795)" fill="#623BEA"/>
    <circle cx="103.941" cy="198.179" r="7.85015" transform="rotate(45.6665 103.941 198.179)" fill="#623BEA"/>
  </g>
</svg>
